<?xml version="1.0" standalone="no"?>
<!DOCTYPE svg PUBLIC "-//W3C//DTD SVG 20010904//EN"
 "http://www.w3.org/TR/2001/REC-SVG-20010904/DTD/svg10.dtd">
<svg version="1.0" xmlns="http://www.w3.org/2000/svg"
 width="626.000000pt" height="626.000000pt" viewBox="0 0 626.000000 626.000000"
 preserveAspectRatio="xMidYMid meet">

<g transform="translate(0.000000,626.000000) scale(0.100000,-0.100000)"
fill="#000000" stroke="none">
<path d="M0 3130 l0 -3130 3130 0 3130 0 0 3130 0 3130 -3130 0 -3130 0 0
-3130z m2823 1259 l532 -711 49 53 c66 72 456 494 903 977 l364 392 186 0 187
0 -31 -32 c-16 -18 -342 -370 -723 -783 -381 -412 -710 -768 -731 -790 l-38
-40 251 -335 c138 -184 522 -698 854 -1143 332 -444 604 -809 604 -812 0 -3
-281 -5 -625 -5 l-625 0 -566 758 c-311 416 -572 763 -578 770 -14 14 53 85
-840 -881 l-599 -647 -185 0 -185 0 19 22 c34 39 1515 1641 1565 1693 l49 50
-79 105 c-43 58 -407 545 -810 1083 -402 538 -731 980 -731 982 0 3 281 5 625
5 l626 0 532 -711z"/>
<path d="M1590 4824 c0 -10 45 -70 1288 -1732 l1244 -1662 285 0 c227 0 283 3
275 12 -5 7 -332 445 -727 973 -395 528 -963 1287 -1262 1688 l-545 727 -279
0 c-153 0 -279 -2 -279 -6z"/>
</g>
</svg>
